<mxfile host="app.diagrams.net" modified="2020-11-04T10:50:46.676Z" agent="5.0 (Windows NT 10.0; Win64; x64) AppleWebKit/537.36 (KHTML, like Gecko) Chrome/86.0.4240.183 Safari/537.36" etag="HpK6V2lMo4VukSioxn7t" version="13.8.9-1" type="github">
  <diagram id="fnScLYaVQPWkbdmMcm72" name="第 1 页">
    <mxGraphModel dx="1422" dy="762" grid="1" gridSize="10" guides="1" tooltips="1" connect="1" arrows="1" fold="1" page="1" pageScale="1" pageWidth="827" pageHeight="1169" math="0" shadow="0">
      <root>
        <mxCell id="0" />
        <mxCell id="1" parent="0" />
        <mxCell id="NOBfDCYtn_Ti1O1qT9xx-5" value="" style="verticalLabelPosition=bottom;verticalAlign=top;html=1;shape=mxgraph.basic.rect;fillColor2=none;strokeWidth=1;size=20;indent=5;" vertex="1" parent="1">
          <mxGeometry x="80" y="140" width="660" height="420" as="geometry" />
        </mxCell>
        <mxCell id="NOBfDCYtn_Ti1O1qT9xx-4" style="edgeStyle=orthogonalEdgeStyle;rounded=0;orthogonalLoop=1;jettySize=auto;html=1;exitX=1;exitY=0.5;exitDx=0;exitDy=0;" edge="1" parent="1" source="NOBfDCYtn_Ti1O1qT9xx-1" target="NOBfDCYtn_Ti1O1qT9xx-2">
          <mxGeometry relative="1" as="geometry" />
        </mxCell>
        <mxCell id="NOBfDCYtn_Ti1O1qT9xx-1" value="&lt;font style=&quot;vertical-align: inherit&quot;&gt;&lt;font style=&quot;vertical-align: inherit&quot;&gt;&lt;font style=&quot;vertical-align: inherit&quot;&gt;&lt;font style=&quot;vertical-align: inherit&quot;&gt;&lt;font style=&quot;vertical-align: inherit&quot;&gt;&lt;font style=&quot;vertical-align: inherit ; font-size: 18px&quot;&gt;&lt;font style=&quot;vertical-align: inherit&quot;&gt;&lt;font style=&quot;vertical-align: inherit&quot;&gt;审核结算单&lt;/font&gt;&lt;/font&gt;&lt;/font&gt;&lt;/font&gt;&lt;/font&gt;&lt;/font&gt;&lt;/font&gt;&lt;/font&gt;" style="rounded=0;whiteSpace=wrap;html=1;" vertex="1" parent="1">
          <mxGeometry x="230" y="340" width="140" height="80" as="geometry" />
        </mxCell>
        <mxCell id="NOBfDCYtn_Ti1O1qT9xx-2" value="&lt;font style=&quot;vertical-align: inherit&quot;&gt;&lt;font style=&quot;vertical-align: inherit&quot;&gt;&lt;font style=&quot;vertical-align: inherit&quot;&gt;&lt;font style=&quot;vertical-align: inherit ; font-size: 18px&quot;&gt;付款代发&lt;/font&gt;&lt;/font&gt;&lt;/font&gt;&lt;/font&gt;" style="rounded=0;whiteSpace=wrap;html=1;" vertex="1" parent="1">
          <mxGeometry x="450" y="340" width="130" height="80" as="geometry" />
        </mxCell>
        <mxCell id="NOBfDCYtn_Ti1O1qT9xx-6" value="&lt;font style=&quot;vertical-align: inherit&quot;&gt;&lt;font style=&quot;vertical-align: inherit&quot;&gt;&lt;font style=&quot;vertical-align: inherit&quot;&gt;&lt;font style=&quot;vertical-align: inherit ; background-color: rgb(255 , 255 , 255)&quot;&gt;王二狗&lt;/font&gt;&lt;/font&gt;&lt;/font&gt;&lt;/font&gt;" style="rounded=0;whiteSpace=wrap;html=1;" vertex="1" parent="1">
          <mxGeometry x="230" y="430" width="50" height="20" as="geometry" />
        </mxCell>
        <mxCell id="NOBfDCYtn_Ti1O1qT9xx-7" value="&lt;font style=&quot;vertical-align: inherit&quot;&gt;&lt;font style=&quot;vertical-align: inherit&quot;&gt;&lt;font style=&quot;vertical-align: inherit&quot;&gt;&lt;font style=&quot;vertical-align: inherit ; background-color: rgb(255 , 255 , 255)&quot;&gt;李全蛋&lt;/font&gt;&lt;/font&gt;&lt;/font&gt;&lt;/font&gt;" style="rounded=0;whiteSpace=wrap;html=1;" vertex="1" parent="1">
          <mxGeometry x="290" y="430" width="50" height="20" as="geometry" />
        </mxCell>
        <mxCell id="NOBfDCYtn_Ti1O1qT9xx-8" value="&lt;font style=&quot;vertical-align: inherit&quot;&gt;&lt;font style=&quot;vertical-align: inherit&quot;&gt;&lt;font style=&quot;vertical-align: inherit&quot;&gt;&lt;font style=&quot;vertical-align: inherit ; background-color: rgb(255 , 255 , 255)&quot;&gt;王二狗&lt;/font&gt;&lt;/font&gt;&lt;/font&gt;&lt;/font&gt;" style="rounded=0;whiteSpace=wrap;html=1;" vertex="1" parent="1">
          <mxGeometry x="460" y="430" width="50" height="20" as="geometry" />
        </mxCell>
        <mxCell id="NOBfDCYtn_Ti1O1qT9xx-9" value="&lt;span style=&quot;background-color: rgb(255 , 255 , 255)&quot;&gt;祝无双&lt;/span&gt;" style="rounded=0;whiteSpace=wrap;html=1;" vertex="1" parent="1">
          <mxGeometry x="520" y="430" width="50" height="20" as="geometry" />
        </mxCell>
        <mxCell id="NOBfDCYtn_Ti1O1qT9xx-10" value="&lt;font color=&quot;#3399ff&quot;&gt;编辑&lt;/font&gt;" style="text;html=1;strokeColor=none;fillColor=none;align=center;verticalAlign=middle;whiteSpace=wrap;rounded=0;" vertex="1" parent="1">
          <mxGeometry x="609" y="239" width="40" height="20" as="geometry" />
        </mxCell>
        <mxCell id="NOBfDCYtn_Ti1O1qT9xx-11" value="&lt;font color=&quot;#3399ff&quot;&gt;删除&lt;/font&gt;" style="text;html=1;strokeColor=none;fillColor=none;align=center;verticalAlign=middle;whiteSpace=wrap;rounded=0;" vertex="1" parent="1">
          <mxGeometry x="659" y="239" width="40" height="20" as="geometry" />
        </mxCell>
        <mxCell id="NOBfDCYtn_Ti1O1qT9xx-12" value="&lt;font style=&quot;font-size: 18px&quot;&gt;默认审批流程&lt;/font&gt;" style="text;html=1;strokeColor=none;fillColor=none;align=center;verticalAlign=middle;whiteSpace=wrap;rounded=0;" vertex="1" parent="1">
          <mxGeometry x="90" y="220" width="180" height="30" as="geometry" />
        </mxCell>
        <mxCell id="NOBfDCYtn_Ti1O1qT9xx-13" value="" style="line;strokeWidth=2;html=1;" vertex="1" parent="1">
          <mxGeometry x="80" y="200" width="660" height="10" as="geometry" />
        </mxCell>
        <mxCell id="NOBfDCYtn_Ti1O1qT9xx-15" value="&lt;font style=&quot;font-size: 18px&quot;&gt;审批流程（落地企业上传结算单）&lt;/font&gt;" style="text;html=1;strokeColor=none;fillColor=none;align=center;verticalAlign=middle;whiteSpace=wrap;rounded=0;" vertex="1" parent="1">
          <mxGeometry x="120" y="160" width="280" height="40" as="geometry" />
        </mxCell>
      </root>
    </mxGraphModel>
  </diagram>
</mxfile>
